<?xml version="1.0" encoding="us-ascii" standalone="no"?><svg xmlns="http://www.w3.org/2000/svg" xmlns:xlink="http://www.w3.org/1999/xlink" contentStyleType="text/css" height="265px" preserveAspectRatio="none" style="width:885px;height:265px;background:#FFFFFF;" version="1.1" viewBox="0 0 885 265" width="885px" zoomAndPan="magnify"><defs/><g><text fill="#888888" font-family="sans-serif" font-size="10" lengthAdjust="spacing" textLength="129" x="742" y="9.2822">UML Component Diagram</text><text fill="#000000" font-family="sans-serif" font-size="14" font-weight="bold" lengthAdjust="spacing" textLength="369" x="251" y="35.6357">Context standaard Logboek Dataverwerkingen</text><!--cluster Verantwoordelijke A--><g id="cluster_Verantwoordelijke A"><rect fill="none" height="203" rx="2.5" ry="2.5" style="stroke:#181818;stroke-width:1.0;" width="424" x="7" y="56.9375"/><path d="M178,56.9375 L178,66.2344 L168,76.2344 L7,76.2344 " fill="none" style="stroke:#181818;stroke-width:1.0;"/><text fill="#000000" font-family="sans-serif" font-size="14" font-weight="bold" lengthAdjust="spacing" textLength="161" x="10" y="70.9326">Verantwoordelijke A</text></g><!--cluster Verantwoordelijke B--><g id="cluster_Verantwoordelijke B"><rect fill="none" height="203" rx="2.5" ry="2.5" style="stroke:#181818;stroke-width:1.0;" width="424" x="455" y="56.9375"/><path d="M625,56.9375 L625,66.2344 L615,76.2344 L455,76.2344 " fill="none" style="stroke:#181818;stroke-width:1.0;"/><text fill="#000000" font-family="sans-serif" font-size="14" font-weight="bold" lengthAdjust="spacing" textLength="160" x="458" y="70.9326">Verantwoordelijke B</text></g><!--entity loggerA--><g id="elem_loggerA"><rect fill="#F1F1F1" height="46.2969" rx="2.5" ry="2.5" style="stroke:#181818;stroke-width:0.5;" width="177" x="238.5" y="197.9375"/><rect fill="#F1F1F1" height="10" style="stroke:#181818;stroke-width:0.5;" width="15" x="395.5" y="202.9375"/><rect fill="#F1F1F1" height="2" style="stroke:#181818;stroke-width:0.5;" width="4" x="393.5" y="204.9375"/><rect fill="#F1F1F1" height="2" style="stroke:#181818;stroke-width:0.5;" width="4" x="393.5" y="208.9375"/><text fill="#000000" font-family="sans-serif" font-size="14" lengthAdjust="spacing" textLength="137" x="253.5" y="230.9326">LoggingComponent</text></g><!--entity softwareA--><g id="elem_softwareA"><rect fill="#F1F1F1" height="46.2969" rx="2.5" ry="2.5" style="stroke:#181818;stroke-width:0.5;" width="244" x="171" y="91.9375"/><rect fill="#F1F1F1" height="10" style="stroke:#181818;stroke-width:0.5;" width="15" x="395" y="96.9375"/><rect fill="#F1F1F1" height="2" style="stroke:#181818;stroke-width:0.5;" width="4" x="393" y="98.9375"/><rect fill="#F1F1F1" height="2" style="stroke:#181818;stroke-width:0.5;" width="4" x="393" y="102.9375"/><text fill="#000000" font-family="sans-serif" font-size="14" lengthAdjust="spacing" textLength="204" x="186" y="124.9326">DataverwerkendeComponent</text></g><!--entity registerA--><g id="elem_registerA"><rect fill="#F1F1F1" height="46.2969" rx="2.5" ry="2.5" style="stroke:#181818;stroke-width:0.5;" width="180" x="23" y="197.9375"/><rect fill="#F1F1F1" height="10" style="stroke:#181818;stroke-width:0.5;" width="15" x="183" y="202.9375"/><rect fill="#F1F1F1" height="2" style="stroke:#181818;stroke-width:0.5;" width="4" x="181" y="204.9375"/><rect fill="#F1F1F1" height="2" style="stroke:#181818;stroke-width:0.5;" width="4" x="181" y="208.9375"/><text fill="#000000" font-family="sans-serif" font-size="14" lengthAdjust="spacing" textLength="140" x="38" y="230.9326">RegisterComponent</text></g><!--entity loggerB--><g id="elem_loggerB"><rect fill="#F1F1F1" height="46.2969" rx="2.5" ry="2.5" style="stroke:#181818;stroke-width:0.5;" width="177" x="470.5" y="197.9375"/><rect fill="#F1F1F1" height="10" style="stroke:#181818;stroke-width:0.5;" width="15" x="627.5" y="202.9375"/><rect fill="#F1F1F1" height="2" style="stroke:#181818;stroke-width:0.5;" width="4" x="625.5" y="204.9375"/><rect fill="#F1F1F1" height="2" style="stroke:#181818;stroke-width:0.5;" width="4" x="625.5" y="208.9375"/><text fill="#000000" font-family="sans-serif" font-size="14" lengthAdjust="spacing" textLength="137" x="485.5" y="230.9326">LoggingComponent</text></g><!--entity softwareB--><g id="elem_softwareB"><rect fill="#F1F1F1" height="46.2969" rx="2.5" ry="2.5" style="stroke:#181818;stroke-width:0.5;" width="244" x="471" y="91.9375"/><rect fill="#F1F1F1" height="10" style="stroke:#181818;stroke-width:0.5;" width="15" x="695" y="96.9375"/><rect fill="#F1F1F1" height="2" style="stroke:#181818;stroke-width:0.5;" width="4" x="693" y="98.9375"/><rect fill="#F1F1F1" height="2" style="stroke:#181818;stroke-width:0.5;" width="4" x="693" y="102.9375"/><text fill="#000000" font-family="sans-serif" font-size="14" lengthAdjust="spacing" textLength="204" x="486" y="124.9326">DataverwerkendeComponent</text></g><!--entity registerB--><g id="elem_registerB"><rect fill="#F1F1F1" height="46.2969" rx="2.5" ry="2.5" style="stroke:#181818;stroke-width:0.5;" width="180" x="683" y="197.9375"/><rect fill="#F1F1F1" height="10" style="stroke:#181818;stroke-width:0.5;" width="15" x="843" y="202.9375"/><rect fill="#F1F1F1" height="2" style="stroke:#181818;stroke-width:0.5;" width="4" x="841" y="204.9375"/><rect fill="#F1F1F1" height="2" style="stroke:#181818;stroke-width:0.5;" width="4" x="841" y="208.9375"/><text fill="#000000" font-family="sans-serif" font-size="14" lengthAdjust="spacing" textLength="140" x="698" y="230.9326">RegisterComponent</text></g><!--link softwareA to loggerA--><g id="link_softwareA_loggerA"><path d="M326.75,137.9375 C326.75,137.9375 326.75,192.6175 326.75,192.6175 " fill="none" id="softwareA-to-loggerA" style="stroke:#008000;stroke-width:2.0;"/><polygon fill="#008000" points="326.75,197.6175,330.75,188.6175,326.75,192.6175,322.75,188.6175,326.75,197.6175" style="stroke:#008000;stroke-width:2.0;"/></g><!--link softwareA to registerA--><g id="link_softwareA_registerA"><path d="M187,137.9375 C187,155.5975 187,179.8775 187,197.6175 " fill="none" id="softwareA-registerA" style="stroke:#008000;stroke-width:1.0;stroke-dasharray:7.0,7.0;"/></g><!--link registerA to loggerA--><g id="link_registerA_loggerA"><path d="M203.14,220.9375 C214.79,220.9375 226.71,220.9375 238.34,220.9375 " fill="none" id="registerA-loggerA" style="stroke:#008000;stroke-width:1.0;stroke-dasharray:7.0,7.0;"/></g><!--link softwareB to loggerB--><g id="link_softwareB_loggerB"><path d="M559.25,137.9375 C559.25,137.9375 559.25,192.6175 559.25,192.6175 " fill="none" id="softwareB-to-loggerB" style="stroke:#008000;stroke-width:2.0;"/><polygon fill="#008000" points="559.25,197.6175,563.25,188.6175,559.25,192.6175,555.25,188.6175,559.25,197.6175" style="stroke:#008000;stroke-width:2.0;"/></g><!--link softwareB to registerB--><g id="link_softwareB_registerB"><path d="M699,137.9375 C699,155.5975 699,179.8775 699,197.6175 " fill="none" id="softwareB-registerB" style="stroke:#008000;stroke-width:1.0;stroke-dasharray:7.0,7.0;"/></g><!--link loggerB to registerB--><g id="link_loggerB_registerB"><path d="M647.59,220.9375 C659.2,220.9375 671.11,220.9375 682.75,220.9375 " fill="none" id="loggerB-registerB" style="stroke:#008000;stroke-width:1.0;stroke-dasharray:7.0,7.0;"/></g><!--reverse link softwareB to softwareA--><g id="link_softwareB_softwareA"><path d="M465.98,114.9375 C465.98,114.9375 415.4,114.9375 415.4,114.9375 " fill="none" id="softwareB-backto-softwareA" style="stroke:#008000;stroke-width:2.0;"/><polygon fill="#008000" points="470.98,114.9375,461.98,110.9375,465.98,114.9375,461.98,118.9375,470.98,114.9375" style="stroke:#008000;stroke-width:2.0;"/></g><!--SRC=[dL9DIyGm4BtdLmprQi6B5n6XSOyhYA2NnSEicKrhiqcPZ7ONyRyReSHMruLkRdcPzp4pgGaDyHKytYtXDcoxuCaBB1gqZ5ibZJXAk1VQ2KH1Rn3Pm3BOTQ0M5YZuJjmJjustv9NQ91f1yKICNleGs91hNbk2ge0FfI2TbsnJ91sRYDcu08pW4aXS_QuTUP4tDEN4i94UcVwm7iWsKOYdvJoWbVhyFx6UcLYVb5ZFIwnJOZLC2AxBrJeuStvccSW_lvMZEUGMeLmPZ3NDBUCoRs8mr4SCTLRInmnrbZfWzzEZoW5XwkZAcv6MYkdRTPWM2EkmkqTZqchWycA4kyQJx3k2BhZzz-NGMs2fmnS0]--></g></svg>