<?xml version="1.0" encoding="us-ascii" standalone="no"?><svg xmlns="http://www.w3.org/2000/svg" xmlns:xlink="http://www.w3.org/1999/xlink" contentStyleType="text/css" height="265px" preserveAspectRatio="none" style="width:567px;height:265px;background:#FFFFFF;" version="1.1" viewBox="0 0 567 265" width="567px" zoomAndPan="magnify"><defs/><g><text fill="#888888" font-family="sans-serif" font-size="10" lengthAdjust="spacing" textLength="129" x="424" y="9.2822">UML Component Diagram</text><text fill="#000000" font-family="sans-serif" font-size="14" font-weight="bold" lengthAdjust="spacing" textLength="369" x="92" y="35.6357">Context standaard Logboek Dataverwerkingen</text><!--cluster Verantwoordelijke A--><g id="cluster_Verantwoordelijke A"><rect fill="none" height="203" rx="2.5" ry="2.5" style="stroke:#181818;stroke-width:1.0;" width="265" x="7" y="56.9375"/><path d="M178,56.9375 L178,66.2344 L168,76.2344 L7,76.2344 " fill="none" style="stroke:#181818;stroke-width:1.0;"/><text fill="#000000" font-family="sans-serif" font-size="14" font-weight="bold" lengthAdjust="spacing" textLength="161" x="10" y="70.9326">Verantwoordelijke A</text></g><!--cluster Verantwoordelijke B--><g id="cluster_Verantwoordelijke B"><rect fill="none" height="203" rx="2.5" ry="2.5" style="stroke:#181818;stroke-width:1.0;" width="265" x="296" y="56.9375"/><path d="M466,56.9375 L466,66.2344 L456,76.2344 L296,76.2344 " fill="none" style="stroke:#181818;stroke-width:1.0;"/><text fill="#000000" font-family="sans-serif" font-size="14" font-weight="bold" lengthAdjust="spacing" textLength="160" x="299" y="70.9326">Verantwoordelijke B</text></g><!--entity loggerA--><g id="elem_loggerA"><rect fill="#F1F1F1" height="46.2969" rx="2.5" ry="2.5" style="stroke:#181818;stroke-width:0.5;" width="100" x="156" y="197.9375"/><rect fill="#F1F1F1" height="10" style="stroke:#181818;stroke-width:0.5;" width="15" x="236" y="202.9375"/><rect fill="#F1F1F1" height="2" style="stroke:#181818;stroke-width:0.5;" width="4" x="234" y="204.9375"/><rect fill="#F1F1F1" height="2" style="stroke:#181818;stroke-width:0.5;" width="4" x="234" y="208.9375"/><text fill="#000000" font-family="sans-serif" font-size="14" lengthAdjust="spacing" textLength="60" x="171" y="230.9326">Logboek</text></g><!--entity softwareA--><g id="elem_softwareA"><rect fill="#F1F1F1" height="46.2969" rx="2.5" ry="2.5" style="stroke:#181818;stroke-width:0.5;" width="106" x="150" y="91.9375"/><rect fill="#F1F1F1" height="10" style="stroke:#181818;stroke-width:0.5;" width="15" x="236" y="96.9375"/><rect fill="#F1F1F1" height="2" style="stroke:#181818;stroke-width:0.5;" width="4" x="234" y="98.9375"/><rect fill="#F1F1F1" height="2" style="stroke:#181818;stroke-width:0.5;" width="4" x="234" y="102.9375"/><text fill="#000000" font-family="sans-serif" font-size="14" lengthAdjust="spacing" textLength="66" x="165" y="124.9326">Applicatie</text></g><!--entity registerA--><g id="elem_registerA"><rect fill="#F1F1F1" height="46.2969" rx="2.5" ry="2.5" style="stroke:#181818;stroke-width:0.5;" width="98" x="23" y="197.9375"/><rect fill="#F1F1F1" height="10" style="stroke:#181818;stroke-width:0.5;" width="15" x="101" y="202.9375"/><rect fill="#F1F1F1" height="2" style="stroke:#181818;stroke-width:0.5;" width="4" x="99" y="204.9375"/><rect fill="#F1F1F1" height="2" style="stroke:#181818;stroke-width:0.5;" width="4" x="99" y="208.9375"/><text fill="#000000" font-family="sans-serif" font-size="14" lengthAdjust="spacing" textLength="58" x="38" y="230.9326">Register</text></g><!--entity loggerB--><g id="elem_loggerB"><rect fill="#F1F1F1" height="46.2969" rx="2.5" ry="2.5" style="stroke:#181818;stroke-width:0.5;" width="100" x="312" y="197.9375"/><rect fill="#F1F1F1" height="10" style="stroke:#181818;stroke-width:0.5;" width="15" x="392" y="202.9375"/><rect fill="#F1F1F1" height="2" style="stroke:#181818;stroke-width:0.5;" width="4" x="390" y="204.9375"/><rect fill="#F1F1F1" height="2" style="stroke:#181818;stroke-width:0.5;" width="4" x="390" y="208.9375"/><text fill="#000000" font-family="sans-serif" font-size="14" lengthAdjust="spacing" textLength="60" x="327" y="230.9326">Logboek</text></g><!--entity softwareB--><g id="elem_softwareB"><rect fill="#F1F1F1" height="46.2969" rx="2.5" ry="2.5" style="stroke:#181818;stroke-width:0.5;" width="106" x="312" y="91.9375"/><rect fill="#F1F1F1" height="10" style="stroke:#181818;stroke-width:0.5;" width="15" x="398" y="96.9375"/><rect fill="#F1F1F1" height="2" style="stroke:#181818;stroke-width:0.5;" width="4" x="396" y="98.9375"/><rect fill="#F1F1F1" height="2" style="stroke:#181818;stroke-width:0.5;" width="4" x="396" y="102.9375"/><text fill="#000000" font-family="sans-serif" font-size="14" lengthAdjust="spacing" textLength="66" x="327" y="124.9326">Applicatie</text></g><!--entity registerB--><g id="elem_registerB"><rect fill="#F1F1F1" height="46.2969" rx="2.5" ry="2.5" style="stroke:#181818;stroke-width:0.5;" width="98" x="447" y="197.9375"/><rect fill="#F1F1F1" height="10" style="stroke:#181818;stroke-width:0.5;" width="15" x="525" y="202.9375"/><rect fill="#F1F1F1" height="2" style="stroke:#181818;stroke-width:0.5;" width="4" x="523" y="204.9375"/><rect fill="#F1F1F1" height="2" style="stroke:#181818;stroke-width:0.5;" width="4" x="523" y="208.9375"/><text fill="#000000" font-family="sans-serif" font-size="14" lengthAdjust="spacing" textLength="58" x="462" y="230.9326">Register</text></g><!--link softwareA to loggerA--><g id="link_softwareA_loggerA"><path d="M206,137.9375 C206,137.9375 206,192.6175 206,192.6175 " fill="none" id="softwareA-to-loggerA" style="stroke:#008000;stroke-width:2.0;"/><polygon fill="#008000" points="206,197.6175,210,188.6175,206,192.6175,202,188.6175,206,197.6175" style="stroke:#008000;stroke-width:2.0;"/></g><!--link softwareA to registerA--><!--link registerA to loggerA--><g id="link_registerA_loggerA"><path d="M121.14,220.9375 C132.49,220.9375 144.58,220.9375 155.97,220.9375 " fill="none" id="registerA-loggerA" style="stroke:#008000;stroke-width:1.0;stroke-dasharray:7.0,7.0;"/></g><!--link softwareB to loggerB--><g id="link_softwareB_loggerB"><path d="M362,137.9375 C362,137.9375 362,192.6175 362,192.6175 " fill="none" id="softwareB-to-loggerB" style="stroke:#008000;stroke-width:2.0;"/><polygon fill="#008000" points="362,197.6175,366,188.6175,362,192.6175,358,188.6175,362,197.6175" style="stroke:#008000;stroke-width:2.0;"/></g><!--link softwareB to registerB--><!--link loggerB to registerB--><g id="link_loggerB_registerB"><path d="M412.28,220.9375 C423.57,220.9375 435.53,220.9375 446.78,220.9375 " fill="none" id="loggerB-registerB" style="stroke:#008000;stroke-width:1.0;stroke-dasharray:7.0,7.0;"/></g><!--reverse link softwareB to softwareA--><g id="link_softwareB_softwareA"><path d="M306.96,114.9375 C306.96,114.9375 256.16,114.9375 256.16,114.9375 " fill="none" id="softwareB-backto-softwareA" style="stroke:#008000;stroke-width:2.0;"/><polygon fill="#008000" points="311.96,114.9375,302.96,110.9375,306.96,114.9375,302.96,118.9375,311.96,114.9375" style="stroke:#008000;stroke-width:2.0;"/></g><!--SRC=[ZL9DImCn4BtdLmphrGKlNaI4ZJrM444lnSEqcMPZqymoEzeMyRyRonAhrhAvpSpB-qYc9NGaL_1uDuLRNdUSA2bC0dh1jT6WaN8_AMqLUiNa4CN1bFsSQGKJL7mZsP2iGlAKZ5dcQmJL4mactJ2BenXULWHD1U_6G3wB8bCDF1LW3v6z9sb-GvgkYs616cYFwdcf6nJwWtiW7tebsQDaA1hpyRyZEywH7Ud8Zd9aioCpH8NhUZRdwCxFl12bvzVw85w90FMi3SwTcZliMoeqKfUt79Ji2ILRcEnH9LiuZkXyfpB56VoKYlND0PVfyw9qcBy4vhozH-Voti3bnK4_XaIwwmWwZhklujYCHLl-1000]--></g></svg>